<?xml version="1.0" standalone="no"?>
<!DOCTYPE svg PUBLIC "-//W3C//DTD SVG 20010904//EN"
 "http://www.w3.org/TR/2001/REC-SVG-20010904/DTD/svg10.dtd">
<svg version="1.0" xmlns="http://www.w3.org/2000/svg"
 width="144.000000pt" height="144.000000pt" viewBox="0 0 144.000000 144.000000"
 preserveAspectRatio="xMidYMid meet">
<metadata>
Created by potrace 1.14, written by Peter Selinger 2001-2017
</metadata>
<g transform="translate(0.000000,144.000000) scale(0.100000,-0.100000)"
fill="#000000" stroke="none">
<path d="M526 1081 c-2 -3 -3 -94 -2 -201 l1 -195 202 -2 202 -2 -2 67 -2 67
-110 2 c-60 1 -120 2 -132 2 -22 1 -22 4 -25 134 l-3 132 -63 1 c-34 1 -64 -2
-66 -5z"/>
<path d="M790 1022 l0 -70 43 -3 c23 -2 54 -3 70 -1 26 3 27 5 27 71 l0 68
-70 2 -70 2 0 -69z"/>
<path d="M127 542 c-24 -5 -21 -32 3 -32 17 0 20 -7 20 -50 0 -42 3 -50 18
-50 16 0 19 8 18 48 -1 41 2 47 22 50 12 2 22 9 22 17 0 13 -67 24 -103 17z"/>
<path d="M815 543 c-62 -11 -66 -13 -62 -38 4 -31 9 -36 47 -44 43 -8 33 -25
-12 -22 -29 2 -38 -1 -38 -13 0 -18 52 -25 93 -13 21 7 27 15 27 37 0 29 -15
40 -56 40 -13 0 -24 5 -24 10 0 11 12 13 46 11 26 -2 40 25 16 31 -9 2 -26 3
-37 1z"/>
<path d="M958 542 c-33 -4 -50 -23 -53 -62 -4 -43 22 -70 67 -72 66 -2 80 22
69 114 -2 11 -54 24 -83 20z m52 -67 c0 -23 -5 -34 -19 -38 -27 -7 -51 11 -51
36 0 31 16 45 46 39 20 -3 24 -10 24 -37z"/>
<path d="M260 487 c0 -64 13 -79 66 -79 48 0 56 11 58 74 1 42 -2 53 -16 56
-14 3 -17 -4 -15 -45 2 -47 1 -48 -28 -48 -29 0 -30 2 -30 45 0 35 -4 45 -17
48 -15 3 -18 -5 -18 -51z"/>
<path d="M430 475 l0 -65 55 0 c65 0 76 13 66 80 l-6 45 -57 3 -58 3 0 -66z
m90 25 c0 -5 -13 -10 -30 -10 -16 0 -30 5 -30 10 0 6 14 10 30 10 17 0 30 -4
30 -10z m0 -50 c0 -5 -13 -10 -30 -10 -16 0 -30 5 -30 10 0 6 14 10 30 10 17
0 30 -4 30 -10z"/>
<path d="M599 533 c0 -4 -1 -33 -2 -63 l-1 -55 60 -3 c49 -2 61 0 61 13 0 11
-11 15 -44 15 -23 0 -43 5 -43 10 0 6 16 10 35 10 24 0 35 5 35 15 0 10 -11
15 -35 15 -50 0 -44 18 8 22 23 2 41 8 40 13 -3 12 -113 20 -114 8z"/>
<path d="M1089 520 c0 -11 -1 -33 -1 -50 0 -55 2 -60 20 -60 13 0 18 7 18 23
-1 18 5 23 32 25 20 2 32 9 32 18 0 11 -9 15 -32 12 -18 -2 -33 2 -35 9 -3 8
11 13 39 15 61 4 49 22 -17 26 -50 3 -55 1 -56 -18z"/>
<path d="M1230 525 c0 -9 9 -15 23 -15 21 0 23 -4 21 -50 -1 -43 1 -50 17 -50
16 0 19 8 19 50 0 43 3 50 20 50 11 0 20 7 20 15 0 12 -13 15 -60 15 -47 0
-60 -3 -60 -15z"/>
</g>
</svg>
